<svg xmlns="http://www.w3.org/2000/svg" width="1200" height="720" viewBox="0 0 1200 720" fill="none">
  <rect width="1200" height="720" rx="28" fill="#171717"/>
  <rect x="50" y="50" width="1100" height="620" rx="24" fill="#121512" stroke="#303830"/>
  <rect x="90" y="110" width="420" height="460" rx="22" fill="#1b211b" stroke="#303830"/>
  <rect x="550" y="110" width="560" height="140" rx="22" fill="#1b211b" stroke="#303830"/>
  <rect x="550" y="280" width="560" height="290" rx="22" fill="#1b211b" stroke="#303830"/>
  <rect x="120" y="150" width="210" height="18" rx="9" fill="#B8FF82"/>
  <rect x="120" y="188" width="310" height="10" rx="5" fill="#9EB09E" fill-opacity="0.6"/>
  <rect x="120" y="228" width="270" height="10" rx="5" fill="#9EB09E" fill-opacity="0.6"/>
  <rect x="120" y="290" width="120" height="120" rx="60" fill="#B8FF82" fill-opacity="0.18" stroke="#B8FF82"/>
  <path d="M180 332c0-18 14-32 32-32s32 14 32 32-14 32-32 32-32-14-32-32Z" fill="#B8FF82"/>
  <rect x="580" y="150" width="220" height="18" rx="9" fill="#EDF3ED"/>
  <rect x="580" y="190" width="360" height="10" rx="5" fill="#9EB09E" fill-opacity="0.65"/>
  <rect x="580" y="320" width="160" height="16" rx="8" fill="#B8FF82"/>
  <rect x="580" y="360" width="420" height="10" rx="5" fill="#9EB09E" fill-opacity="0.55"/>
  <rect x="580" y="400" width="390" height="10" rx="5" fill="#9EB09E" fill-opacity="0.55"/>
  <rect x="580" y="440" width="290" height="10" rx="5" fill="#9EB09E" fill-opacity="0.55"/>
</svg>
