<svg xmlns="http://www.w3.org/2000/svg" width="1200" height="720" viewBox="0 0 1200 720" fill="none">
  <rect width="1200" height="720" rx="28" fill="#171717"/>
  <rect x="40" y="40" width="1120" height="80" rx="16" fill="#121212" stroke="#292929"/>
  <rect x="40" y="150" width="300" height="530" rx="20" fill="#121212" stroke="#292929"/>
  <rect x="370" y="150" width="790" height="250" rx="20" fill="#121212" stroke="#292929"/>
  <rect x="370" y="430" width="380" height="250" rx="20" fill="#121212" stroke="#292929"/>
  <rect x="780" y="430" width="380" height="250" rx="20" fill="#121212" stroke="#292929"/>
  <rect x="80" y="72" width="160" height="16" rx="8" fill="#50DF90" fill-opacity="0.5"/>
  <rect x="80" y="200" width="220" height="14" rx="7" fill="#50DF90"/>
  <rect x="80" y="240" width="180" height="10" rx="5" fill="#A1A1AA" fill-opacity="0.6"/>
  <rect x="410" y="190" width="260" height="18" rx="9" fill="#50DF90"/>
  <rect x="410" y="230" width="500" height="10" rx="5" fill="#A1A1AA" fill-opacity="0.55"/>
  <rect x="410" y="470" width="200" height="16" rx="8" fill="#50DF90"/>
  <rect x="820" y="470" width="200" height="16" rx="8" fill="#50DF90"/>
</svg>
