<svg xmlns="http://www.w3.org/2000/svg" width="1200" height="720" viewBox="0 0 1200 720" fill="none">
  <rect width="1200" height="720" rx="28" fill="#171717"/>
  <rect x="50" y="50" width="1100" height="620" rx="24" fill="#121212" stroke="#292929"/>
  <rect x="90" y="100" width="1020" height="44" rx="12" fill="#171717"/>
  <rect x="90" y="180" width="1020" height="60" rx="12" fill="#171717"/>
  <rect x="90" y="260" width="1020" height="60" rx="12" fill="#171717"/>
  <rect x="90" y="340" width="1020" height="60" rx="12" fill="#171717"/>
  <rect x="90" y="420" width="1020" height="60" rx="12" fill="#171717"/>
  <rect x="90" y="500" width="1020" height="60" rx="12" fill="#171717"/>
  <rect x="120" y="120" width="180" height="10" rx="5" fill="#50DF90"/>
  <rect x="120" y="205" width="140" height="12" rx="6" fill="#50DF90"/>
  <rect x="120" y="285" width="140" height="12" rx="6" fill="#50DF90" fill-opacity="0.8"/>
  <rect x="120" y="365" width="140" height="12" rx="6" fill="#50DF90" fill-opacity="0.65"/>
  <rect x="120" y="445" width="140" height="12" rx="6" fill="#50DF90" fill-opacity="0.5"/>
  <rect x="120" y="525" width="140" height="12" rx="6" fill="#50DF90" fill-opacity="0.35"/>
  <rect x="320" y="205" width="650" height="12" rx="6" fill="#A1A1AA" fill-opacity="0.6"/>
  <rect x="320" y="285" width="580" height="12" rx="6" fill="#A1A1AA" fill-opacity="0.6"/>
  <rect x="320" y="365" width="620" height="12" rx="6" fill="#A1A1AA" fill-opacity="0.6"/>
  <rect x="320" y="445" width="700" height="12" rx="6" fill="#A1A1AA" fill-opacity="0.6"/>
  <rect x="320" y="525" width="540" height="12" rx="6" fill="#A1A1AA" fill-opacity="0.6"/>
</svg>
